# xmcd
#
# Track frame offsets:
#	150
#	10927
#	26455
#	45350
#	57350
#	71150
#	87127
#	104225
#	117200
#	131902
#	149300
#	161377
#	181175
#	193100
#	215750
#
# Disc length: 3082 seconds
#
# Revision: 9
# Processed by: cddbd v1.5.2PL0 Copyright (c) Steve Scherf et al.
# Submitted via: audiograbber 1.83.01
#
DISCID=d80c080f
DTITLE=James Galway - The Wind Beneath My Wings
DYEAR=1991
DGENRE=Instrumental
TTITLE0=El Condor Pasa
TTITLE1=Unchained Melody
TTITLE2=From A Distance
TTITLE3=La Vie En Rose
TTITLE4=Come To My Garden (from The Secret Garden)
TTITLE5=Memory (from Cats)
TTITLE6=Smoke Gets In Your Eyes (from Roberta)
TTITLE7=The Windmills Of Your Mind (from The Thomas Crown Affair)
TTITLE8=Perhaps Love
TTITLE9=Basque
TTITLE10=The Ceremony (from Miss Saigon)
TTITLE11=Send In The Clowns (from A Little Night Music)
TTITLE12=Angel Of Music (from The Phantom Of The Opera)
TTITLE13=Irish Medley: The Isle Of Innisfree/I'll Take You Home Again, Kathleen
TTITLE13=/The Rose Of Tralee
TTITLE14=The Wind Beneath My Wings
EXTD=more info
EXTT0=
EXTT1=
EXTT2=
EXTT3=
EXTT4=
EXTT5=
EXTT6=
EXTT7=
EXTT8=
EXTT9=
EXTT10=
EXTT11=
EXTT12=
EXTT13=
EXTT14=
PLAYORDER=
